<svg xmlns="http://www.w3.org/2000/svg" viewBox="0 0 283.06 161.07"><title>M</title><g id="Ebene_2" data-name="Ebene 2"><g id="Ebene_1-2" data-name="Ebene 1"><polygon points="179.27 2.57 179.27 3.13 179.19 3.1 141.53 82.43 103.87 3.1 103.79 3.13 103.79 2.57 78.08 2.57 78.08 149.37 103.79 149.37 103.79 62.88 127.3 112.41 109.43 150.05 132.66 161.07 141.53 142.38 150.4 161.07 173.63 150.05 155.76 112.41 179.27 62.88 179.27 150.2 204.98 150.2 204.98 2.57 179.27 2.57"/><polygon points="62.33 0 32.98 0 0 76.35 32.98 152.71 62.33 152.71 29.36 76.35 62.33 0"/><polygon points="220.73 0 250.08 0 283.06 76.35 250.08 152.71 220.73 152.71 253.7 76.35 220.73 0"/></g></g></svg>