<svg xmlns="http://www.w3.org/2000/svg" viewBox="0 0 720.01 444.88"><defs><style>.cls-1{fill:#f1f3f6;}</style></defs><g id="Ebene_2" data-name="Ebene 2"><g id="Ebene_1-2" data-name="Ebene 1"><g id="Ebene_2-2" data-name="Ebene 2"><g id="Ebene_1-2-2" data-name="Ebene 1-2"><rect class="cls-1" x="368.47" width="32.8" height="187.28"/><path class="cls-1" d="M522.94,0H423.48V187.28H537.22V0ZM504.42,154.48H456.28V32.8h48.14Z"/><polygon class="cls-1" points="311.86 0 311.86 0.72 311.76 0.67 263.72 101.87 215.68 0.67 215.58 0.72 215.58 0 182.78 0 182.78 187.28 215.58 187.28 215.58 76.94 245.56 140.12 222.77 188.14 252.4 202.2 263.72 178.36 275.03 202.2 304.66 188.14 281.87 140.12 311.86 76.94 311.86 188.33 344.66 188.33 344.66 0 311.86 0"/><rect class="cls-1" x="687.21" y="397.16" width="32.8" height="32.8"/><rect class="cls-1" x="179.61" y="242.67" width="32.8" height="187.28"/><polygon class="cls-1" points="129.08 242.68 129.08 243.4 128.98 243.35 80.94 344.55 32.9 243.35 32.8 243.4 32.8 242.68 0 242.68 0 429.95 32.8 429.95 32.8 319.62 62.79 382.8 39.99 430.82 69.63 444.88 80.94 421.04 92.26 444.88 121.89 430.82 99.09 382.8 129.08 319.62 129.08 431.01 161.88 431.01 161.88 242.68 129.08 242.68"/><polygon class="cls-1" points="674.65 243.27 638.9 243.27 598.74 336.26 638.9 429.25 674.65 429.25 634.49 336.26 674.65 243.27"/><path class="cls-1" d="M522.79,241,439.58,429.68H585.93l34.23.49L539,241ZM488.4,399l39.26-94.55h4.17L569.05,399Z"/><path class="cls-1" d="M456.75,353.77,470.9,321H389.23V275.5h69.32l-14.29-32.8H356.43v75.81l-32.51-75.26H231.47V430.53h92.45l32.51-75.26V430H421.5l15.76-32.79h-48V353.77ZM302.14,397.59l-37.87.14V276.05l37.77-.11,26.32,60.94Z"/></g></g></g></g></svg>