<svg xmlns="http://www.w3.org/2000/svg" viewBox="0 0 283.06 181.19"><title>robot</title><g id="Ebene_2" data-name="Ebene 2"><g id="Ebene_1-2" data-name="Ebene 1"><rect x="129.12" y="33.21" width="24.82" height="24.82" transform="translate(95.91 187.15) rotate(-90)"/><polygon points="62.33 9.13 32.98 9.13 0 85.48 32.98 161.83 62.33 161.83 29.36 85.48 62.33 9.13"/><polygon points="220.73 9.13 250.08 9.13 283.06 85.48 250.08 161.83 220.73 161.83 253.7 85.48 220.73 9.13"/><path d="M155.33,94.56l57-24.6V42.71h0V0H70.55V70l57,24.6H71V143.8L95.8,155.73V119.38h32.83v51.1l24.82,10.71V119.38h34.43v52.46L212.7,161V94.56Zm-60-69.74h92.08l.08,28.59L141.42,73.32,95.48,53.48Z"/></g></g></svg>